<svg xmlns="http://www.w3.org/2000/svg" xmlns:xlink="http://www.w3.org/1999/xlink" viewBox="0 0 125.16 94.21"><defs><style>.cls-1{fill:url(#linear-gradient);}.cls-2{fill:url(#linear-gradient-2);}.cls-3{fill:url(#linear-gradient-3);}.cls-4{fill:#ef7824;}</style><linearGradient id="linear-gradient" x1="28.98" y1="86.31" x2="125.16" y2="86.31" gradientUnits="userSpaceOnUse"><stop offset="0" stop-color="#28404b"/><stop offset="1" stop-color="#46575e"/></linearGradient><linearGradient id="linear-gradient-2" x1="28.98" y1="47.11" x2="125.16" y2="47.11" xlink:href="#linear-gradient"/><linearGradient id="linear-gradient-3" x1="28.98" y1="7.9" x2="125.16" y2="7.9" xlink:href="#linear-gradient"/></defs><title>Asset 2</title><g id="Layer_2" data-name="Layer 2"><g id="Layer_1-2" data-name="Layer 1"><path class="cls-1" d="M118.92,92.55H35.22a6.25,6.25,0,0,1,0-12.49h83.7a6.25,6.25,0,0,1,0,12.49Z"/><path class="cls-2" d="M118.92,53.36H35.22a6.25,6.25,0,0,1,0-12.5h83.7a6.25,6.25,0,0,1,0,12.5Z"/><path class="cls-3" d="M118.92,14.15H35.22a6.25,6.25,0,0,1,0-12.49h83.7a6.25,6.25,0,0,1,0,12.49Z"/><path class="cls-4" d="M16.77,8.39A8.39,8.39,0,1,1,8.39,0a8.38,8.38,0,0,1,8.38,8.39Z"/><path class="cls-4" d="M16.77,47.11a8.39,8.39,0,1,1-8.38-8.39,8.38,8.38,0,0,1,8.38,8.39Z"/><path class="cls-4" d="M16.77,85.82a8.39,8.39,0,1,1-8.38-8.38,8.38,8.38,0,0,1,8.38,8.38Z"/></g></g></svg>