<?xml version="1.0" encoding="UTF-8"?>
<!-- Created with Inkscape (http://www.inkscape.org/) -->
<svg width="1219.8" height="647.49" version="1.1" viewBox="0 0 1219.8 647.49" xml:space="preserve" xmlns="http://www.w3.org/2000/svg" xmlns:cc="http://creativecommons.org/ns#" xmlns:dc="http://purl.org/dc/elements/1.1/" xmlns:rdf="http://www.w3.org/1999/02/22-rdf-syntax-ns#"><metadata><rdf:RDF><cc:Work rdf:about=""><dc:format>image/svg+xml</dc:format><dc:type rdf:resource="http://purl.org/dc/dcmitype/StillImage"/><dc:title/></cc:Work></rdf:RDF></metadata><defs><clipPath id="clipPath20"><path d="m0 1440h2560v-1440h-2560z"/></clipPath><clipPath id="clipPath44"><path d="m1537.9 895.59s22.451-35.746 23.887-37.178c0.922-0.922 56.588 39.01 96.637 67.944-9.241 3.577-18.769 6.484-27.825 10.542-3.822 1.715-7.579 3.571-11.279 5.516-35.353-20.133-80.523-45.924-81.42-46.824"/></clipPath><linearGradient id="linearGradient54" x2="1" gradientTransform="matrix(-10.665 49.33 49.33 10.665 1600.8 898.73)" gradientUnits="userSpaceOnUse"><stop stop-color="#f6921e" offset="0"/><stop stop-color="#ec1c24" offset="1"/></linearGradient><clipPath id="clipPath64"><path d="m0 1440h2560v-1440h-2560z"/></clipPath><clipPath id="clipPath84"><path d="m1531.2 1060.2-13.514-218.27 21.522-36.713 109.44 64.162 25.584-43.643 45.025 26.397-25.581 43.639 29.785 17.459-24.771 42.256-29.786-17.459-88.524 151zm40.98-66.729 2.768 1.629 48.934-83.473-59.226-34.717z"/></clipPath><linearGradient id="linearGradient94" x2="1" gradientTransform="matrix(-218 118 118 218 1688 877.73)" gradientUnits="userSpaceOnUse"><stop stop-color="#f6921e" offset="0"/><stop stop-color="#ec1c24" offset="1"/></linearGradient><clipPath id="clipPath104"><path d="m1500.7 814.98 38.444-9.738-21.522 36.713-36.384 9.988z"/></clipPath><linearGradient id="linearGradient114" x2="1" gradientTransform="matrix(53.5 -46.5 -46.5 -53.5 1482.6 851.58)" gradientUnits="userSpaceOnUse"><stop stop-color="#f6c21e" offset="0"/><stop stop-color="#ec1c24" offset="1"/></linearGradient><clipPath id="clipPath124"><path d="m1481.3 851.94 36.384-9.988 13.514 218.27-33.381 7.988z"/></clipPath><linearGradient id="linearGradient134" x2="1" gradientTransform="matrix(69.999 -174 -174 -69.999 1487 1003.8)" gradientUnits="userSpaceOnUse"><stop stop-color="#f6c21e" offset="0"/><stop stop-color="#ec1c24" offset="1"/></linearGradient><clipPath id="clipPath144"><path d="m1497.8 1068.2 33.381-7.988 49.182 28.831-33.802 9.828z"/></clipPath><linearGradient id="linearGradient154" x2="1" gradientTransform="matrix(82.562 0 0 -82.562 1497.8 1079.6)" gradientUnits="userSpaceOnUse"><stop stop-color="#f6c21e" offset="0"/><stop stop-color="#ec1c24" offset="1"/></linearGradient><clipPath id="clipPath164"><path d="m0 1440h2560v-1440h-2560z"/></clipPath><clipPath id="clipPath236"><path d="m1237.2 1085.9c-15.318-4.571-29.105-12.218-41.376-22.952-12.269-10.737-22.68-24.217-31.223-40.426-8.552-16.219-14.729-34.321-18.544-54.296-3.818-19.984-4.749-39.088-2.773-57.306 1.965-18.223 6.675-34.584 14.125-49.086 7.447-14.504 17.442-26.705 30-36.59 11.688-9.213 25.46-15.57 41.315-19.078 3.754 8.371 7.384 16.785 10.649 25.367 2.788 7.317 5.374 14.749 8.386 21.985-2.031 0.158-4.076 0.417-6.155 0.812-9.728 1.86-17.965 5.815-24.706 11.873-6.751 6.055-11.96 13.731-15.635 23.014-3.678 9.289-5.813 19.84-6.413 31.678-0.604 11.825 0.353 24.312 2.864 37.465 2.561 13.408 6.29 25.429 11.184 36.08 4.895 10.644 10.759 19.607 17.602 26.883 6.837 7.276 14.508 12.484 23.014 15.63 8.498 3.139 17.617 3.789 27.345 1.931 7.702-1.474 14.485-4.378 20.388-8.663 2.842 5.672 5.899 11.242 8.807 16.795 3.437 6.572 6.628 13.26 9.683 20.01 1.304 2.886 2.436 5.861 3.619 8.806-9.858 5.619-20.907 9.606-33.155 11.951-7.295 1.391-14.414 2.087-21.349 2.087-9.561 1e-3 -18.777-1.322-27.652-3.97"/></clipPath><linearGradient id="linearGradient246" x2="1" gradientTransform="matrix(25.498 -149.99 -149.99 -25.498 1222.4 1044.9)" gradientUnits="userSpaceOnUse"><stop stop-color="#f6c21e" offset="0"/><stop stop-color="#ec1c24" offset="1"/></linearGradient><clipPath id="clipPath256"><path d="m1316.8 1066.5c-3.114-6.728-6.233-13.441-9.682-20.01-2.938-5.587-6.021-11.193-8.879-16.908 1.016-0.777 2.008-1.581 2.969-2.443 6.742-6.058 12.017-13.742 15.824-23.05 3.808-9.311 6.028-19.819 6.654-31.52 0.625-11.704-0.344-24.254-2.901-37.661-2.511-13.146-6.228-25.111-11.148-35.885-4.919-10.776-10.868-19.788-17.839-27.04-6.973-7.252-14.708-12.455-23.207-15.592-6.27-2.318-12.797-3.281-19.58-2.908-3.336-7.914-6.147-16.068-9.188-24.083-3.012-7.927-6.394-15.7-9.878-23.433 0.785-0.164 1.565-0.328 2.354-0.48 17.35-3.317 33.678-2.688 48.996 1.882 15.311 4.565 29.105 12.215 41.375 22.954 12.273 10.734 22.676 24.211 31.226 40.427 8.545 16.207 14.73 34.307 18.547 54.29 3.816 19.976 4.736 39.081 2.772 57.308-1.974 18.219-6.679 34.584-14.124 49.088-7.449 14.502-17.452 26.695-30.001 36.588-3.379 2.662-6.939 5.078-10.664 7.264-1.174-2.944-2.298-5.911-3.626-8.788"/></clipPath><linearGradient id="linearGradient266" x2="1" gradientTransform="matrix(-52 96 96 52 1310.5 891.09)" gradientUnits="userSpaceOnUse"><stop stop-color="#f6921e" offset="0"/><stop stop-color="#ec1c24" offset="1"/></linearGradient><clipPath id="clipPath276"><path d="m1267.9 1075.5c-15.321-4.571-29.108-12.22-41.377-22.954-12.267-10.738-22.68-24.216-31.225-40.43-8.553-16.216-14.73-34.314-18.545-54.291-3.816-19.982-4.747-39.087-2.774-57.304 1.969-18.224 6.677-34.586 14.127-49.088 7.446-14.504 17.441-26.705 30-36.591 12.55-9.885 27.504-16.493 44.854-19.809 17.35-3.319 33.679-2.682 48.998 1.882 15.311 4.565 29.106 12.215 41.376 22.951 12.269 10.737 22.673 24.214 31.223 40.43 8.548 16.214 14.73 34.309 18.546 54.292 3.818 19.972 4.739 39.078 2.774 57.306-1.975 18.219-6.676 34.584-14.127 49.086-7.447 14.504-17.448 26.697-30.001 36.592-12.556 9.891-27.504 16.492-44.853 19.809-7.298 1.393-14.412 2.09-21.348 2.09-9.558-1e-3 -18.776-1.324-27.648-3.971m4.402-231.57c-9.73 1.856-17.967 5.814-24.71 11.872-6.749 6.055-11.957 13.733-15.631 23.014-3.68 9.287-5.813 19.84-6.415 31.678-0.601 11.826 0.354 24.314 2.866 37.465 2.562 13.408 6.286 25.429 11.185 36.077 4.891 10.645 10.757 19.61 17.598 26.883 6.84 7.278 14.509 12.489 23.016 15.635 8.498 3.137 17.615 3.787 27.346 1.93 9.461-1.81 17.562-5.746 24.313-11.799 6.74-6.06 12.019-13.74 15.829-23.053 3.802-9.306 6.023-19.816 6.648-31.515 0.627-11.704-0.341-24.254-2.902-37.663-2.51-13.146-6.226-25.112-11.144-35.883-4.923-10.779-10.872-19.791-17.838-27.04-6.974-7.252-14.712-12.457-23.212-15.596-5.4-1.998-10.989-2.995-16.773-2.995-3.328 0-6.72 0.33-10.176 0.99"/></clipPath><linearGradient id="linearGradient286" x2="1" gradientTransform="matrix(4.5 -269.99 -269.99 -4.5 1287.6 1074.2)" gradientUnits="userSpaceOnUse"><stop stop-color="#f6921e" offset="0"/><stop stop-color="#ec1c24" offset="1"/></linearGradient><clipPath id="clipPath296"><path d="m0 1440h2560v-1440h-2560z"/></clipPath><clipPath id="clipPath524"><path d="m989 916.42c-3.414-4.156-6.84-8.307-10.343-12.39l56.318-25.965 20.447 26.696-55.445 27.073c-3.961-4.957-7.176-10.787-10.977-15.414"/></clipPath><linearGradient id="linearGradient534" x2="1" gradientTransform="matrix(-14.667 84 84 14.667 1021.6 878.32)" gradientUnits="userSpaceOnUse"><stop stop-color="#f6921e" offset="0"/><stop stop-color="#ec1c24" offset="1"/></linearGradient><clipPath id="clipPath544"><path d="m840.96 967.42-18.376-38.381 114.43-54.779-21.843-45.627 47.076-22.537 21.841 45.626 31.143-14.907 21.148 44.174-31.143 14.914 75.585 157.88-51.423 24.615zm55.28-19.34 100.8 59.012 2.896-1.389-41.777-87.269z"/></clipPath><linearGradient id="linearGradient554" x2="1" gradientTransform="matrix(-53 -153 -153 53 980.2 1051.4)" gradientUnits="userSpaceOnUse"><stop stop-color="#f6921e" offset="0"/><stop stop-color="#ec1c24" offset="1"/></linearGradient><clipPath id="clipPath564"><path d="m0 1440h2560v-1440h-2560z"/></clipPath><clipPath id="clipPath584"><path d="m1029.4 1078.4 51.423-24.615 22.574 27.022-44.728 21.525z"/></clipPath><linearGradient id="linearGradient594" x2="1" gradientTransform="matrix(73.997 0 0 -73.997 1029.4 1078.1)" gradientUnits="userSpaceOnUse"><stop stop-color="#f6921e" offset="0"/><stop stop-color="#ec1c24" offset="1"/></linearGradient><clipPath id="clipPath604"><path d="m0 1440h2560v-1440h-2560z"/></clipPath></defs><g transform="matrix(1.3333 0 0 -1.3333 -1096.8 1469.8)"><g clip-path="url(#clipPath20)"><g transform="translate(1529.6 636.94)"><path d="m0 0c-6.558-8.504-14.266-14.824-12.573-17.693 0 0 3.489-2.541 13.123-2.541 16.516 0 32.747 1.259 30.081 2.933-3.693 2.319-14.385 3.158-24.603 6.694-2.525 0.875 5.527 5.767 3.327 6.566-4.552 1.658-8.098 3.092-9.355 4.041"/></g><g transform="translate(1699.8 619.75)"><path d="m0 0s2.17-3.047 10.499-3.047c14.28 0 29.165 1.94 26.862 3.389-3.194 2.002-28.223 7.226-28.223 7.226l-5.612 6.971-9.519-5.266z"/></g><g transform="translate(1654.6 830.22)"><path d="m0 0c-10.243 0-17.988 2.047-18.635 2.221-5.344 1.457-8.493 6.97-7.035 12.312 1.455 5.338 6.947 8.481 12.283 7.047 0.351-0.092 22.901-5.869 36.063 5.424 8.809 7.564 12.156 21.807 9.949 42.332l-0.704 6.551 20.278 11.49c4.826 2.73 10.942 1.039 13.669-3.783 2.731-4.815 1.036-10.934-3.782-13.662l-8.966-5.084c1.417-24.18-4.458-42.045-17.499-53.16-10.994-9.37-24.721-11.688-35.621-11.688" fill="#ef7824"/></g><g transform="translate(1689.3 885.86)"><path d="m0 0c-0.381-14.586-4.255-25.137-11.605-31.441-14.439-12.395-39.17-6.077-39.595-5.963-5.863 1.582-11.891-1.877-13.488-7.733-1.598-5.865 1.859-11.918 7.722-13.519 0.712-0.19 9.226-4.438 20.46-4.039 42.668 1.515 68.42 38.32 68.896 59.777z" fill="#e1f3f6"/></g></g><g clip-path="url(#clipPath44)"><path d="m1537.9 895.59s22.451-35.746 23.887-37.178c0.922-0.922 56.588 39.01 96.637 67.944-9.241 3.577-18.769 6.484-27.825 10.542-3.822 1.715-7.579 3.571-11.279 5.516-35.353-20.133-80.523-45.924-81.42-46.824" fill="url(#linearGradient54)"/></g><g clip-path="url(#clipPath64)"><g transform="translate(1631.2 937.93)"><path d="m0 0c9.258-4.084 18.983-7.047 28.394-10.748 22.048 15.937 39.093 28.336 39.093 28.336l-37.686 10.588s-18.133-10.291-40.477-23.012c3.505-1.83 7.058-3.566 10.676-5.164" fill="#ec1c24"/></g><g transform="translate(1566.2 984.85)"><path d="m0 0 22.187-60.07 43.374-15.914-54.942 100.36z" fill="#c0272d"/></g><g transform="translate(1634.1 894.11)"><path d="m0 0h-32.134l28.601-49.967 43.605-18.383z" fill="#c0272d"/></g></g><g clip-path="url(#clipPath84)"><path d="m1531.2 1060.2-13.514-218.27 21.522-36.713 109.44 64.162 25.584-43.643 45.025 26.397-25.581 43.639 29.785 17.459-24.771 42.256-29.786-17.459-88.524 151zm40.98-66.729 2.768 1.629 48.934-83.473-59.226-34.717z" fill="url(#linearGradient94)"/></g><g clip-path="url(#clipPath104)"><path d="m1500.7 814.98 38.444-9.738-21.522 36.713-36.384 9.988z" fill="url(#linearGradient114)"/></g><g clip-path="url(#clipPath124)"><path d="m1481.3 851.94 36.384-9.988 13.514 218.27-33.381 7.988z" fill="url(#linearGradient134)"/></g><g clip-path="url(#clipPath144)"><path d="m1497.8 1068.2 33.381-7.988 49.182 28.831-33.802 9.828z" fill="url(#linearGradient154)"/></g><g clip-path="url(#clipPath164)"><g transform="translate(1571 764.97)"><path d="m0 0s5.348-57.68 5.348-77.885c0 0-41.999-32.736-52.284-49.859 4.416-3.363 13.147-7.824 18.867-7.651 28.022 26.76 58.782 45.858 58.782 45.858s13.269 38.49 17.399 71.078z"/></g><g transform="translate(1600.9 762.25)"><path d="m0 0c9.457-0.066 19.122 1.561 27.256 5.977-2.73 11.519 3.087 45.505 10.39 63.666 0 0 5.758 12.646 1.721 16.531-14.94 14.371-27.655 13.193-31.609 13.351-13.714-11.576-39.234-45.74-38.209-90.892 7.047-7.406 21.36-8.572 30.451-8.633" fill="#e1f3f6"/></g><g transform="translate(1693.6 627.44)"><path d="m0 0c5.469 1.52 10.711 4.049 14.075 8.521-16.218 26.303-75.687 122.92-78.909 130.48-0.082 0.195-0.156 0.42-0.232 0.641-8.733-4.709-19.155-6.368-29.258-5.977-8.799 0.336-21.536 1.57-28.721 8.084 0.018-0.465 0.02-0.926 0.043-1.396 1.24-25.219 84.897-109.3 117.82-141.46 1.813 0.265 3.573 0.66 5.185 1.105" fill="#1a1a1a"/></g><g transform="translate(1520.9 788.4)"><path d="m0 0c-2.323 0-4.555 0.332-6.687 1.049-4.421 1.48-10.273 5.205-13.037 14.529-1.573 5.313 1.453 10.895 6.766 12.465 5.309 1.576 10.889-1.457 12.461-6.766 0.187-0.617 0.358-1.013 0.481-1.242 1.07-0.045 5.04 0.301 14.707 5.983 8.636 5.07 18.854 12.63 28.734 19.937 16.692 12.354 32.46 24.018 45.481 28.137 5.277 1.672 10.913-1.26 12.585-6.537 1.67-5.28-1.254-10.914-6.533-12.582-9.833-3.112-24.969-14.315-39.607-25.139-21.43-15.854-40.327-29.834-55.351-29.834" fill="#ef7824"/></g><g transform="translate(1539.6 795.89)"><path d="m0 0c-1.228 5.904-2.516 12.424-6.254 17.275-8.082-4.476-11.537-4.779-12.522-4.738-0.123 0.229-0.294 0.625-0.482 1.242-1.572 5.309-7.152 8.342-12.461 6.766-5.312-1.57-8.339-7.152-6.765-12.465 2.763-9.324 8.615-13.049 13.037-14.529 2.132-0.717 4.363-1.049 6.686-1.049 5.825 0 12.236 2.107 19.15 5.609-0.13 0.629-0.259 1.258-0.389 1.889" fill="#ef7824"/></g><g transform="translate(1622.4 855.95)"><path d="m0 0c-1.672 5.277-7.309 8.209-12.585 6.537-13.021-4.119-28.789-15.783-45.481-28.137-9.88-7.306-20.098-14.867-28.734-19.937-0.393-0.236-0.764-0.442-1.141-0.656 3.75-4.953 10.238-29.385 10.353-29.942 10.631 5.563 61.636 44.389 72.692 56.108 3.802 4.027 6.566 10.748 4.896 16.027" fill="#e1f3f6"/></g><g transform="translate(1506.7 796.5)"><path d="m0 0c-0.594 0-1.193 0.18-1.713 0.549-7.868 5.623-11.972 16.447-12.142 16.902-0.569 1.528 0.204 3.225 1.731 3.797 1.522 0.564 3.222-0.205 3.793-1.728 0.037-0.098 3.663-9.61 10.047-14.172 1.327-0.946 1.633-2.789 0.686-4.11-0.576-0.808-1.482-1.238-2.402-1.238" fill="#ef7824"/></g><g transform="translate(1506.7 803.69)"><path d="m0 0c-0.928 0-1.839 0.436-2.411 1.248-3.765 5.332-6.782 18.004-7.113 19.428-0.367 1.586 0.618 3.172 2.205 3.541 1.59 0.379 3.172-0.619 3.54-2.207 0.832-3.567 3.56-13.639 6.183-17.358 0.942-1.332 0.625-3.172-0.705-4.109-0.518-0.369-1.112-0.543-1.699-0.543" fill="#ef7824"/></g><g transform="translate(1510.8 805.35)"><path d="m 0,0 c -1.165,0 -2.267,0.691 -2.733,1.838 -2.703,6.619 -3.756,20.51 -3.8,21.099 -0.12,1.622 1.097,3.036 2.723,3.157 1.632,0.133 3.038,-1.1 3.16,-2.723 C -0.374,19.619 0.778,8.842 2.728,4.062 3.345,2.553 2.62,0.834 1.114,0.219 0.747,0.07 0.37,0 0,0" fill="#ef7824"/></g><g transform="translate(1515.2 806.77)"><path d="m0 0c-1.316 0-2.511 0.881-2.856 2.211-1.856 7.207-0.164 14.555-0.09 14.861 0.374 1.588 1.968 2.565 3.548 2.196 1.583-0.373 2.565-1.959 2.194-3.547-0.031-0.137-1.412-6.315 0.061-12.035 0.407-1.582-0.545-3.19-2.121-3.594-0.246-0.067-0.494-0.092-0.736-0.092" fill="#ef7824"/></g><g transform="translate(1633.8 839.92)"><path d="m0 0c-1.351 0-2.722 0.293-4.024 0.906-4.713 2.227-6.727 7.856-4.498 12.565 2.328 4.927 6.532 9.974 7.004 10.535 3.366 3.982 9.316 4.484 13.298 1.121 3.982-3.357 4.489-9.303 1.137-13.289-1.182-1.402-3.413-4.391-4.375-6.434-1.612-3.408-5.006-5.404-8.542-5.404" fill="#ef7824"/></g><g transform="translate(1635.1 844.78)"><path d="m0 0c1.115-1.234 2.286-2.395 3.505-3.5 1.545 0.926 2.846 2.299 3.675 4.047 0.962 2.043 3.193 5.031 4.375 6.433 3.351 3.987 2.844 9.932-1.137 13.29-3.982 3.363-9.933 2.861-13.298-1.122-0.186-0.222-0.954-1.144-1.957-2.476 0.085-5.945 0.709-12.123 4.837-16.672" fill="#c6601a"/></g><g transform="translate(1666.1 855.2)"><path d="m0 0c-3.757-9.109-14.184-13.455-23.295-9.697-9.11 3.756-13.451 14.185-9.695 23.299l4.72 11.449c3.756 9.113 14.189 13.453 23.298 9.697 9.11-3.758 13.449-14.186 9.693-23.295z" fill="#ef7824"/></g><g transform="translate(1635.1 870.13)"><path d="m0 0c-1.451-6.133-10.257-4.166-13.563-0.963-4.558 4.406-7.278 16.877 2.819 16.213-7.272 10.977 17.395 22.885 19.984 10.199 1.927 3.27 3.898 6.213 8.189 6.488 3.089 0.196 8.497-2.195 8.05-5.976 4.587 3.623 11.268 3.342 15.808-0.322 1.451-1.174 4.067-3.784 2.758-5.688-0.72-1.049-4.438-1.371-5.681-1.75 2.147 0.975 10.937-0.986 9.206-4.64-0.805-1.704-5.106-0.174-6.365 0.189 0 0-0.014-0.398 0-0.383 4.694-2.574 6.629-5.185 6.066-11.029-0.258-2.686-1.529-7.764-4.726-8.149-1.637-0.193-3.528 0.84-3.5 2.555 3.923-3.914-1.633-14.394-6.586-9.224-1.943 2.025-1.005 5.421 0.836 7.171-2.93 1.686-9.285 10.596-4.764 12.979-2.113-0.049-11.901 3.269-8.787 6.084 0.821-3.264-3.222-7.49-6.438-5.813 2.002-4.353-3.883-7.603-7.499-7.757 2.213-2.786-4.609-6.09-6.692-2.053z" fill="#1a1a1a"/></g><g transform="translate(1299.9 905.74)"><path d="m0 0s-5.728 21.922 22.684 27.133l-2.166-26.346z" fill="#e1f3f6"/></g><g transform="translate(1186.1 850.38)"><path d="m0 0c-6.221 0-12.004 1.26-17.337 3.781-25.808 12.196-28.676 48.832-28.783 50.387-0.389 5.527 3.774 10.318 9.299 10.707 5.514 0.385 10.301-3.762 10.703-9.273 0.56-7.373 4.774-27.784 17.392-33.709 10.418-4.893 26.58 0.086 46.741 14.406 4.513 3.209 10.775 2.144 13.981-2.369 3.206-4.52 2.145-10.778-2.372-13.987-18.697-13.275-35.311-19.943-49.624-19.943" fill="#cde5e8"/></g></g><g clip-path="url(#clipPath236)"><path d="m1237.2 1085.9c-15.318-4.571-29.105-12.218-41.376-22.952-12.269-10.737-22.68-24.217-31.223-40.426-8.552-16.219-14.729-34.321-18.544-54.296-3.818-19.984-4.749-39.088-2.773-57.306 1.965-18.223 6.675-34.584 14.125-49.086 7.447-14.504 17.442-26.705 30-36.59 11.688-9.213 25.46-15.57 41.315-19.078 3.754 8.371 7.384 16.785 10.649 25.367 2.788 7.317 5.374 14.749 8.386 21.985-2.031 0.158-4.076 0.417-6.155 0.812-9.728 1.86-17.965 5.815-24.706 11.873-6.751 6.055-11.96 13.731-15.635 23.014-3.678 9.289-5.813 19.84-6.413 31.678-0.604 11.825 0.353 24.312 2.864 37.465 2.561 13.408 6.29 25.429 11.184 36.08 4.895 10.644 10.759 19.607 17.602 26.883 6.837 7.276 14.508 12.484 23.014 15.63 8.498 3.139 17.617 3.789 27.345 1.931 7.702-1.474 14.485-4.378 20.388-8.663 2.842 5.672 5.899 11.242 8.807 16.795 3.437 6.572 6.628 13.26 9.683 20.01 1.304 2.886 2.436 5.861 3.619 8.806-9.858 5.619-20.907 9.606-33.155 11.951-7.295 1.391-14.414 2.087-21.349 2.087-9.561 1e-3 -18.777-1.322-27.652-3.97" fill="url(#linearGradient246)"/></g><g clip-path="url(#clipPath256)"><path d="m1316.8 1066.5c-3.114-6.728-6.233-13.441-9.682-20.01-2.938-5.587-6.021-11.193-8.879-16.908 1.016-0.777 2.008-1.581 2.969-2.443 6.742-6.058 12.017-13.742 15.824-23.05 3.808-9.311 6.028-19.819 6.654-31.52 0.625-11.704-0.344-24.254-2.901-37.661-2.511-13.146-6.228-25.111-11.148-35.885-4.919-10.776-10.868-19.788-17.839-27.04-6.973-7.252-14.708-12.455-23.207-15.592-6.27-2.318-12.797-3.281-19.58-2.908-3.336-7.914-6.147-16.068-9.188-24.083-3.012-7.927-6.394-15.7-9.878-23.433 0.785-0.164 1.565-0.328 2.354-0.48 17.35-3.317 33.678-2.688 48.996 1.882 15.311 4.565 29.105 12.215 41.375 22.954 12.273 10.734 22.676 24.211 31.226 40.427 8.545 16.207 14.73 34.307 18.547 54.29 3.816 19.976 4.736 39.081 2.772 57.308-1.974 18.219-6.679 34.584-14.124 49.088-7.449 14.502-17.452 26.695-30.001 36.588-3.379 2.662-6.939 5.078-10.664 7.264-1.174-2.944-2.298-5.911-3.626-8.788" fill="url(#linearGradient266)"/></g><g clip-path="url(#clipPath276)"><path d="m1267.9 1075.5c-15.321-4.571-29.108-12.22-41.377-22.954-12.267-10.738-22.68-24.216-31.225-40.43-8.553-16.216-14.73-34.314-18.545-54.291-3.816-19.982-4.747-39.087-2.774-57.304 1.969-18.224 6.677-34.586 14.127-49.088 7.446-14.504 17.441-26.705 30-36.591 12.55-9.885 27.504-16.493 44.854-19.809 17.35-3.319 33.679-2.682 48.998 1.882 15.311 4.565 29.106 12.215 41.376 22.951 12.269 10.737 22.673 24.214 31.223 40.43 8.548 16.214 14.73 34.309 18.546 54.292 3.818 19.972 4.739 39.078 2.774 57.306-1.975 18.219-6.676 34.584-14.127 49.086-7.447 14.504-17.448 26.697-30.001 36.592-12.556 9.891-27.504 16.492-44.853 19.809-7.298 1.393-14.412 2.09-21.348 2.09-9.558-1e-3 -18.776-1.324-27.648-3.971m4.402-231.57c-9.73 1.856-17.967 5.814-24.71 11.872-6.749 6.055-11.957 13.733-15.631 23.014-3.68 9.287-5.813 19.84-6.415 31.678-0.601 11.826 0.354 24.314 2.866 37.465 2.562 13.408 6.286 25.429 11.185 36.077 4.891 10.645 10.757 19.61 17.598 26.883 6.84 7.278 14.509 12.489 23.016 15.635 8.498 3.137 17.615 3.787 27.346 1.93 9.461-1.81 17.562-5.746 24.313-11.799 6.74-6.06 12.019-13.74 15.829-23.053 3.802-9.306 6.023-19.816 6.648-31.515 0.627-11.704-0.341-24.254-2.902-37.663-2.51-13.146-6.226-25.112-11.144-35.883-4.923-10.779-10.872-19.791-17.838-27.04-6.974-7.252-14.712-12.457-23.212-15.596-5.4-1.998-10.989-2.995-16.773-2.995-3.328 0-6.72 0.33-10.176 0.99" fill="url(#linearGradient286)"/></g><g clip-path="url(#clipPath296)"><g transform="translate(1439.8 942.31)"><path d="m0 0 0.765-36.869s-10.528-9.432-19.958 0l3.476 41.521z" fill="#1a1a1a"/></g><g transform="translate(1396.4 648.24)"><path d="m0 0c-0.602 0.475-4.711 2.389-5.278 2.865-2.206-3.306-3.749-5.129-6.403-7.871 6.499-5.666 4.828-12.549 4.828-12.549s-4.598-3.955-6.396-4.845c-5.734-2.825-16.313-6.75-16.313-6.75l26.639-2.088 19.759 20.24c-7.003 3.91-12.372 7.465-16.836 10.998"/></g><g transform="translate(1292 646.79)"><path d="m0 0c-4.242 0.742-9.598-2.51-13.05 0-0.801-7.41-0.647-11.453-0.647-11.453l-39.412-16.254h50.333c0.453 5.363-0.51 10.512 0.215 15.48 0.368 2.553 2.097 9.766 2.561 12.227"/></g><g transform="translate(1337.9 825.68)"><path d="m0 0-44.535-84.623s18.045-15.264 35.811-20.352l33.388 99.705z" fill="#cde5e8"/></g><g transform="translate(1386.7 641.11)"><path d="m0 0c2.671 2.732 4.877 5.992 7.075 9.305-11.52 9.871-17.157 20.045-32.812 37.55-6.475 7.249 10.68 48.741 14.846 55.7 7.484 12.508 8.641 21.576 14.494 42.982l-43.494-16.248c-10.353-37.086-22.416-74.18-10.323-91.869 12.778-18.705 35.456-33.772 46.401-41.293 0.417-0.287 3.449 4.15 3.813 3.873"/></g><g transform="translate(1313.5 910.1)"><path d="M 0,0 C -0.597,0 -1.195,0.18 -1.717,0.555 -3.041,1.5 -3.343,3.346 -2.393,4.668 1.11,9.549 1.881,13.566 1.888,13.605 2.183,15.199 3.706,16.266 5.31,15.982 6.907,15.697 7.973,14.186 7.699,12.59 7.661,12.373 6.747,7.285 2.4,1.229 1.824,0.426 0.919,0 0,0" fill="#ef7824"/></g><g transform="translate(1387.2 777.68)"><path d="m0 0c12.947 35.549 24.002 91.328 28.141 113.59-2.313 0.961-4.582 1.683-6.384 2.185-3.84 1.059-8.444 2.309-12.382 1.084-1.998-0.623-3.779-1.652-5.523-2.746-1.616-4.832-2.281-8.904-2.281-8.904s-27.808-53.162-45.926-89.416c15.388-3.447 30.435-8.504 44.355-15.793" fill="#1a1a1a"/></g><g transform="translate(1342.3 792.39)"><path d="m0 0c-8e-3 4e-3 -0.013 4e-3 -0.021 0.01-1.604-3.213-3.129-6.289-4.544-9.172h-0.012c-3.566-6.315-7.404-12.152-11.126-17.762-35.784-53.955-49.297-96.957-51.684-117.31 3.415-2.666 16.337-4.174 20.644-4.922 6.601 33.734 23.781 55.269 54.559 80.713 10.3 8.515 18.004 19.334 24.775 28.314 4.035 5.354 8.039 13.938 11.883 24.33-13.951 7.313-29.058 12.36-44.474 15.799" fill="#1a1a1a"/></g><g transform="translate(1307.6 777.55)"><path d="m 0,0 c -4.156,0 -8.04,2.6 -9.476,6.744 -1.814,5.236 0.957,10.947 6.19,12.76 12.167,4.217 30.826,20.848 43.406,38.687 25.531,36.202 43.456,56.272 44.208,57.112 3.698,4.121 10.038,4.468 14.161,0.767 4.119,-3.695 4.465,-10.035 0.767,-14.154 C 99.079,101.715 81.297,81.783 56.511,46.637 44.092,29.027 22.136,7.092 3.282,0.559 2.198,0.18 1.089,0 0,0" fill="#ef7824"/></g><g transform="translate(1408.3 887.95)"><path d="m0 0c-0.229 0-0.463 0.012-0.699 0.025-5.197 0.385-9.102 4.905-8.723 10.104 0.4 5.435 2.503 11.658 2.743 12.353 1.702 4.922 7.073 7.539 12.001 5.838 4.924-1.697 7.539-7.066 5.844-11.988-0.593-1.736-1.599-5.328-1.762-7.58-0.364-4.963-4.504-8.746-9.404-8.752" fill="#ef7824"/></g><g transform="translate(1411.1 897.91)"><path d="m0 0c1.668-1.914 3.489-3.623 5.419-5.184 0.678 1.188 1.113 2.532 1.222 3.981 0.163 2.252 1.169 5.844 1.761 7.58 1.696 4.922-0.92 10.291-5.843 11.988-4.086 1.414-8.473-0.152-10.825-3.535 0.871-5.332 5.223-11.334 8.266-14.83" fill="#c6601a"/></g><g transform="translate(1435.4 918.34)"><path d="m0 0c-0.221-9.852-8.385-17.654-18.239-17.434-9.851 0.219-17.658 8.387-17.436 18.237l0.277 12.383c0.22 9.853 8.387 17.662 18.239 17.439 9.85-0.225 17.657-8.387 17.436-18.24z" fill="#ef7824"/></g><g transform="translate(1293.4 780.31)"><path d="m0 0c-4.113 0-8.822 1.105-14.09 3.322-1.5 0.629-2.206 2.36-1.577 3.858 0.633 1.506 2.358 2.213 3.86 1.582 7.764-3.264 13.944-3.731 17.877-1.35 1.396 0.844 3.205 0.395 4.051-1 0.841-1.391 0.396-3.203-0.999-4.047-2.604-1.576-5.651-2.365-9.122-2.365" fill="#ef7824"/></g><g transform="translate(1297 776.03)"><path d="m0 0c-4.693 0-8.459 0.91-12.743 1.949l-1.328 0.319c-1.584 0.378-2.562 1.97-2.18 3.556 0.376 1.58 1.971 2.567 3.554 2.18l1.341-0.324c7.152-1.729 11.88-2.875 22.337-0.174 1.587 0.404 3.186-0.541 3.594-2.119 0.406-1.58-0.543-3.188-2.119-3.596-5.041-1.301-8.999-1.791-12.456-1.791" fill="#ef7824"/></g><g transform="translate(1293.2 786.12)"><path d="m 0,0 c -9.258,0 -15.602,5.695 -15.919,5.986 -1.2,1.1 -1.282,2.963 -0.182,4.166 1.098,1.198 2.955,1.28 4.16,0.19 C -11.647,10.076 -4.864,4.1 4.26,6.447 5.846,6.855 7.446,5.904 7.853,4.328 8.259,2.752 7.311,1.141 5.731,0.736 3.728,0.219 1.806,0 0,0" fill="#ef7824"/></g><g transform="translate(1299.4 789.29)"><path d="m0 0c-0.115 0-0.23 0.012-0.346 0.021-10.045 1.176-14.129 8.409-14.299 8.715-0.782 1.428-0.259 3.221 1.167 4.008 1.419 0.777 3.202 0.266 3.994-1.146 0.137-0.243 2.923-4.909 9.822-5.717 1.619-0.19 2.775-1.654 2.587-3.272-0.174-1.498-1.449-2.609-2.925-2.609" fill="#ef7824"/></g><g transform="translate(1334.7 905.84)"><path d="m0 0c-0.158 0-0.319 0.018-0.483 0.043-4.882 0.807-18.237 2.91-21.341 2.91-1.629 0-2.949 1.32-2.949 2.949 0 1.625 1.32 2.952 2.949 2.952 4.15 0 20.458-2.688 22.303-2.995 1.606-0.265 2.696-1.779 2.427-3.386-0.238-1.444-1.488-2.473-2.906-2.473" fill="#ef7824"/></g><g transform="translate(1332.8 899.65)"><path d="m 0,0 c -0.256,0 -0.519,0.035 -0.777,0.107 -0.141,0.036 -14.166,3.854 -20.691,4.227 -1.627,0.092 -2.868,1.484 -2.776,3.111 0.093,1.629 1.498,2.907 3.111,2.774 C -13.988,9.814 0.18,5.955 0.778,5.791 2.35,5.363 3.273,3.746 2.844,2.176 2.487,0.859 1.297,0 0,0" fill="#ef7824"/></g><g transform="translate(1331.4 893.16)"><path d="m0 0c-0.304 0-0.606 0.047-0.906 0.137-13.281 4.289-16.553 4.552-18.311 4.693-0.762 0.063-1.479 0.117-2.459 0.381-1.573 0.414-2.512 2.025-2.097 3.602 0.418 1.576 2.03 2.511 3.606 2.097 0.47-0.123 0.807-0.152 1.421-0.199 2.14-0.174 5.717-0.461 19.651-4.957 1.549-0.498 2.401-2.16 1.902-3.713-0.405-1.248-1.562-2.041-2.807-2.041" fill="#ef7824"/></g><g transform="translate(1325.5 888.44)"><path d="m0 0c-0.068 0-0.141 4e-3 -0.213 0.01-13.299 0.951-13.852 8.174-13.871 8.99l5.898 0.139s8e-3 0.072-0.015 0.195c6e-3 -0.031 0.615-2.887 8.411-3.445 1.622-0.114 2.846-1.524 2.729-3.147-0.111-1.556-1.403-2.742-2.939-2.742" fill="#ef7824"/></g><g transform="translate(1314.4 891.98)"><path d="m0 0s-2.56 1.182-6.549 1.182c-3.355 0-7.912 5.691-7.912 11.595 0 0-1.638 17.416 16.745 9.539z" fill="#ef7824"/></g><g transform="translate(1372.3 840.22)"><path d="m0 0-25.771-126.88s39.91-9.615 64.39 4.485l6.192 176.3s-27.394 9.586-44.811-53.896" fill="#cde5e8"/></g><g transform="translate(1378.2 770.4)"><path d="m0 0 24.687 1.326s0.591-37.752-14.155-36.279c0 0-20.178-4.41-10.532 34.953" fill="#e1f3f6"/></g><g transform="translate(1409.2 897.13)"><path d="m0 0c-2.711 2.43-6.207 3.771-9.845 3.771-4.183 0-8.187-1.787-10.976-4.898-0.755-0.844-18.789-21.014-44.551-57.541-1.686-2.391-3.542-4.83-5.517-7.256l-2.62-3.215 2.856-3.009c3.04-3.213 6.231-6.346 9.313-9.37 1.674-1.642 3.347-3.285 5-4.943l3.645-3.654 3.312 3.955c2.959 3.525 5.686 7.058 8.112 10.492 24.634 34.934 42.227 54.65 42.404 54.85 5.424 6.048 4.916 15.392-1.133 20.818" fill="#e1f3f6"/></g><g transform="translate(1357.5 804.93)"><path d="m0 0-25.951 23.316 9.964 11.086 25.951-23.31z" fill="#f8fdff"/></g><g transform="translate(1381.8 911.26)"><path d="m0 0 22.676-8.885s9.641 46.912 2.605 53.949c0 0-25.281 2.395-25.281-45.064" fill="#1a1a1a"/></g><g transform="translate(1408.4 948.15)"><path d="m0 0c0.804-1.193 18.398-12.938 32.213-9.689 0 0-2.361 20.742-34.61 17.753z" fill="#1a1a1a"/></g><g transform="translate(1422 926.04)"><path d="m0 0c0-5.447-4.417-9.859-9.862-9.859-5.444 0-9.859 4.412-9.859 9.859 0 5.445 4.415 9.859 9.859 9.859 5.445 0 9.862-4.414 9.862-9.859z" fill="none" stroke="#dddd67" stroke-miterlimit="10" stroke-width=".868"/></g><g transform="translate(1444.2 924.1)"><path d="m0 0c0-4.738-3.838-8.576-8.574-8.576-4.737 0-8.576 3.838-8.576 8.576 0 4.736 3.839 8.578 8.576 8.578 4.736 0 8.574-3.842 8.574-8.578z" fill="none" stroke="#dddd67" stroke-miterlimit="10" stroke-width=".755"/></g><g transform="translate(1422 926.04)"><path d="m0 0s3.272 1.281 5.224-0.67" fill="none" stroke="#dddd67" stroke-miterlimit="10" stroke-width=".868"/></g><g transform="translate(1135.1 908.77)"><path d="m0 0c-0.231 0-0.461 0.01-0.696 0.025-5.2 0.377-9.105 4.905-8.726 10.104 0.4 5.434 2.502 11.656 2.743 12.346 1.699 4.929 7.073 7.545 12 5.843 4.924-1.703 7.539-7.064 5.844-11.988-0.593-1.74-1.599-5.33-1.762-7.58-0.364-4.965-4.504-8.75-9.403-8.75" fill="#ef7824"/></g><g transform="translate(1129.5 646.85)"><path d="m0 0c15.632-7.217 28.458-7.066 29.491-7.217 10.192 18.137 40.895 67.25 12.963 107.56l-39.506 21.232s39.506-41.217-2.948-121.57"/></g><g transform="translate(1149.9 630.8)"><path d="m0 0s3.649 7.404 6.5 12.379c-2.14 0.262-11.707 0.65-15.637 2.16-3.689-7.533-11.727-18.572-17.405-26.141h53.085z"/></g><g transform="translate(1215.6 744.83)"><path d="m0 0c-6.601 12.814-54.552 51.406-58.897 73.57-0.383 1.961-0.713 3.977-0.998 6.039-7.703-4.074-17.699-5.179-25.621-5.584-8.984-0.455-14.355-1.013-23.048 3.219 0.736-13.756-1.502-27.035 6.521-40.971 15.927-27.644 68.844-51.318 74.747-60.453 11.639-18.023 15.665-57.148 19.628-81.017 6.231 0 21.003 0.273 27.074 2.427-2.051 12.243 1.278 62.624-19.406 102.77" fill="#1a1a1a"/></g><g transform="translate(1232.1 632.94)"><path d="m0 0s-1.724 6.98-2.239 10.234c-6.074-2.134-9.608 0.016-15.857 0 0.947-5.92 0.245-16.984 0.792-23.48h50.334z"/></g><g transform="translate(1130.5 811.61)"><path d="m0 0c7.665 0.354 23.768 2.488 30.229 8.945-1.323 10.522-6.026 27.451-4.371 41.075 5.615 46.191-16.94 60.035-16.94 60.035s-10.383 7.259-18.798-1.41c-12.687-13.071-25.066-50.022-23.825-104.65 8.746-4.513 24.513-4.41 33.705-3.992" fill="#cde5e8"/></g><g transform="translate(1246.1 797.04)"><path d="m0 0c-0.75 0-1.514 0.082-2.274 0.26-36.346 8.433-67.124 30.209-89.013 62.976-16.401 24.549-22.067 46.58-22.302 47.506-1.353 5.373 1.903 10.822 7.275 12.172 5.365 1.354 10.81-1.896 12.168-7.258 0.105-0.4 5.329-20.22 19.914-41.847 19.244-28.524 44.977-46.704 76.489-54.016 5.396-1.248 8.753-6.637 7.502-12.029-1.074-4.631-5.2-7.764-9.759-7.764" fill="#ef7824"/></g><g transform="translate(1224 827.16)"><path d="m0 0c-20.026 9.484-37.075 24.514-50.673 44.678-14.407 21.361-19.617 41.097-19.664 41.287-1.326 5.24-6.027 8.902-11.427 8.902-0.969 0-1.944-0.119-2.892-0.359-3.055-0.77-5.628-2.684-7.242-5.391-1.619-2.701-2.084-5.875-1.313-8.929l0.048-0.221c1.551-6.75 7.751-30.49 22.497-52.557 17.649-26.426 41.597-46.205 69.253-57.207 0.209-0.084 0.432-0.123 0.654-0.123 0.349 0 0.696 0.102 0.993 0.305 0.484 0.33 0.775 0.877 0.775 1.465v26.554c0 0.686-0.394 1.305-1.009 1.596" fill="#e1f3f6"/></g><g transform="translate(1253.6 796.32)"><path d="m0 0c-3.214 0-6.625 0.357-10.227 1.08-1.6 0.316-2.633 1.873-2.316 3.469 0.319 1.597 1.87 2.635 3.473 2.314 8.781-1.756 16.106-1.117 21.777 1.903 1.439 0.767 3.224 0.22 3.989-1.219 0.765-1.438 0.221-3.225-1.218-3.986-4.455-2.374-9.633-3.561-15.478-3.561" fill="#ef7824"/></g><g transform="translate(1254 802.92)"><path d="m0 0c-1.404 0-2.851 0.092-4.319 0.307-1.613 0.234-2.728 1.736-2.492 3.347 0.235 1.614 1.727 2.729 3.343 2.492 9.433-1.382 18.165 3.516 18.255 3.567 1.415 0.803 3.215 0.316 4.023-1.096 0.807-1.412 0.325-3.209-1.086-4.021-0.37-0.209-8.111-4.596-17.724-4.596" fill="#ef7824"/></g><g transform="translate(1251.4 808.72)"><path d="m0 0c-0.458 0-0.926 0.016-1.404 0.047-1.627 0.101-2.862 1.498-2.759 3.127 0.103 1.627 1.504 2.859 3.13 2.756 6.977-0.428 10.639 3.808 10.673 3.851 1.025 1.268 2.885 1.457 4.147 0.428 1.265-1.023 1.458-2.881 0.43-4.145-0.21-0.261-5.036-6.064-14.217-6.064" fill="#ef7824"/></g><g transform="translate(1241.2 813.7)"><path d="m 0,0 c -1.628,0 -2.95,1.32 -2.95,2.947 0,1.623 1.312,2.944 2.934,2.948 0.263,0.005 6.087,0.138 9.419,4.939 0.929,1.34 2.766,1.668 4.104,0.742 C 14.846,10.65 15.179,8.813 14.249,7.473 9.122,0.08 0.367,0 0,0" fill="#ef7824"/></g><g transform="translate(1231.5 880.26)"><path d="m0 0c-0.919 0-1.825 0.424-2.4 1.229-4.35 6.058-5.264 11.144-5.302 11.359-0.277 1.603 0.801 3.127 2.408 3.404 1.596 0.279 3.127-0.799 3.406-2.406 4e-3 -0.02 0.777-4.037 4.281-8.92 0.949-1.324 0.646-3.168-0.679-4.113-0.517-0.375-1.12-0.553-1.714-0.553" fill="#ef7824"/></g><g transform="translate(1232.1 878.96)"><path d="m0 0c-0.186 0-0.374 0.016-0.562 0.051-6.451 1.24-19.251 1.256-19.381 1.256-1.628 0-2.949 1.318-2.949 2.947 0 1.627 1.321 2.947 2.949 2.947 0.547 0 13.492-0.015 20.493-1.355 1.598-0.303 2.647-1.848 2.341-3.45-0.269-1.414-1.507-2.396-2.891-2.396" fill="#ef7824"/></g><g transform="translate(1210.6 872.81)"><path d="m 0,0 c -1.467,0 -2.739,1.094 -2.925,2.584 -0.2,1.617 0.946,3.092 2.565,3.291 C 1.513,6.109 18.078,8.127 23.435,7.174 25.039,6.895 26.107,5.363 25.822,3.758 25.538,2.154 24.003,1.08 22.403,1.373 19.026,1.965 7.096,0.861 0.368,0.025 0.243,0.01 0.121,0 0,0" fill="#ef7824"/></g><g transform="translate(1214.4 866.15)"><path d="m0 0c-1.384 0-2.62 0.977-2.892 2.391-0.308 1.601 0.741 3.146 2.34 3.453 7.145 1.377 9.05 1.986 12.509 3.101 1.62 0.524 3.637 1.166 6.643 2.041 1.561 0.453 3.201-0.447 3.654-2.009 0.453-1.567-0.447-3.206-2.015-3.655-2.921-0.847-4.809-1.459-6.474-1.99-3.557-1.146-5.706-1.836-13.202-3.281-0.189-0.035-0.377-0.051-0.563-0.051" fill="#ef7824"/></g><g transform="translate(1220.8 861.46)"><path d="m0 0c-1.41 0-2.659 1.014-2.905 2.451-0.275 1.608 0.806 3.133 2.411 3.403 9.553 1.636 11.456 5.199 11.466 5.236 0.51 1.549 2.177 2.389 3.725 1.879 1.545-0.514 2.385-2.182 1.876-3.727-0.379-1.14-2.925-6.949-16.072-9.201-0.168-0.025-0.336-0.041-0.501-0.041" fill="#ef7824"/></g><g transform="translate(1232.1 865.01)"><path d="m0 0-2.249 24.037s10.545-0.767 10.521-11.816c-7e-3 -3.69-1.069-7.799-8.272-12.221" fill="#ef7824"/></g><g transform="translate(1165.8 943.32)"><path d="m0 0c2.661-10.061-3.339-20.381-13.403-23.041-10.067-2.664-20.383 3.334-23.047 13.4l-3.347 12.649c-2.661 10.068 3.34 20.385 13.403 23.047 10.067 2.666 20.383-3.338 23.046-13.403z" fill="#ef7824"/></g><g transform="translate(1164 950.01)"><path d="m0 0c-1.431-3.994-3.459-7.947-6.57-10.641-7.586-6.545-19.221-8.31-28.453-4.384l0.341-1.305c2.664-10.066 12.981-16.065 23.047-13.4 10.065 2.66 16.065 12.98 13.404 23.041z" fill="#1a1a1a"/></g><g transform="translate(1129.3 934.37)"><path d="m0 0c-7.08 4.545-14.727 21.824-3.542 25.605 6.92 2.342 4.133-18.988 4.133-25.015z" fill="#1a1a1a"/></g><g transform="translate(1123.6 958.55)"><path d="m0 0c-8.557 6.201 2.047 23.742 23.189 23.742 13.069 0 12.974-10.01 3.936-15.414-7.5-4.484-19.129-1.859-24.764-9.506z" fill="#1a1a1a"/></g><g transform="translate(1164 946.14)"><path d="m0 0c-2.996 4.545-8.899 13.746-11.193 18.93-1.456 3.291-3.453 8.904 3.141 4.916 5.519-3.336 8.515-15.1 7.995-21.061z" fill="#1a1a1a"/></g><g transform="translate(1014.6 904.2)"><path d="m0 0c-3.254-3.014-6.837-5.816-9.771-9.174l-42.573-88.931 31.693 40.908 33.661 69.584c-4.305-4.16-8.614-8.323-13.01-12.387" fill="#c0272d"/></g><g transform="translate(989.34 918.8)"><path d="m0 0c3.089 4.223 6.06 9.188 9.573 13.549l-74.516 36.383-70.702-7.078 123.88-57.127c4.063 4.63 8.147 9.32 11.765 14.273" fill="#c0272d"/></g></g><g clip-path="url(#clipPath524)"><path d="m989 916.42c-3.414-4.156-6.84-8.307-10.343-12.39l56.318-25.965 20.447 26.696-55.445 27.073c-3.961-4.957-7.176-10.787-10.977-15.414" fill="url(#linearGradient534)"/></g><g clip-path="url(#clipPath544)"><path d="m840.96 967.42-18.376-38.381 114.43-54.779-21.843-45.627 47.076-22.537 21.841 45.626 31.143-14.907 21.148 44.174-31.143 14.914 75.585 157.88-51.423 24.615zm55.28-19.34 100.8 59.012 2.896-1.389-41.777-87.269z" fill="url(#linearGradient554)"/></g><g clip-path="url(#clipPath564)"><g transform="translate(1036.4 880.99)"><path d="m0 0 19.042 23.771-14.942-33.13-25.952-36.246z" fill="#c0272d"/></g><g transform="translate(1029.1 917.91)"><path d="m0 0 74.309 162.9-22.576-27.022-75.584-157.88c2.109 2.031 22.648 20.803 23.851 22.008" fill="#c0272d"/></g><g transform="translate(840.96 967.42)"><path d="m0 0 33.579 29.23 184.13 105.68-29.269-23.931z" fill="#faaf3b"/></g></g><g clip-path="url(#clipPath584)"><path d="m1029.4 1078.4 51.423-24.615 22.574 27.022-44.728 21.525z" fill="url(#linearGradient594)"/></g><g clip-path="url(#clipPath604)"><g transform="translate(960.38 938.67)"><path d="m0 0c0.976 1.715 1.643 3.01 2.267 4.303-0.531-1.258-1.269-2.692-2.267-4.303m5.908 20.752c-6.325 4.494-10.679 2.529-13.717 2.057-3.326-0.516-5.789 1.302-5.801 1.312-1.367 0.885-3.194 0.496-4.078-0.871-0.888-1.367-0.498-3.193 0.869-4.078 0.139-0.094 2.713-1.731 7.209-2.906-4.906-4.475-9.906-9.873-10.184-10.176-1.105-1.192-1.032-3.059 0.166-4.164 0.566-0.526 1.284-0.783 1.998-0.783 0.796 0 1.587 0.316 2.168 0.947 0.056 0.06 3.54 3.822 7.433 7.57-3.614-4.521-7.003-9.223-7.623-10.088-0.95-1.326-0.645-3.168 0.678-4.115 0.519-0.373 1.12-0.553 1.718-0.553 0.914 0 1.82 0.426 2.397 1.227 1.929 2.697 4.654 6.338 7.255 9.607-0.968-1.914-2.197-4.08-4.656-8.041-0.859-1.383-0.437-3.199 0.947-4.058 0.484-0.299 1.024-0.444 1.554-0.444 0.988 0 1.949 0.491 2.509 1.391 1.012 1.629 1.827 2.976 2.511 4.135-0.515-1.278-0.073-2.783 1.128-3.565 0.497-0.324 1.053-0.478 1.607-0.478 0.964 0 1.909 0.472 2.475 1.342 2.762 4.253 4.103 7.72 4.679 10.455l0.12-0.092c1.641 8.291-0.355 12.23-3.362 14.369" fill="#ef7824"/></g><g transform="translate(875.97 925.97)"><path d="m0 0c-9.336 0.531-22.885-17.75-9.024-22.725-12.548 0.299-15.619-17.437-4.115-22.336-20.145 3.92-17.8-22.183-8.273-31.63-6.458 1.033-12.985-5.139-12.007-11.858 0.983-6.767 3.666-16.146 20.405-21.172 16.743-5.025 26.975 4.385 35.304 13.26 5.332-10.896 31.689 3.828 28.768 16.861 9.947-3.525 18.857 7.764 19.058 16.782 0.194 8.8-5.97 15.521-11.832 21.236 4.129 3.781 4.912 10.793 3.824 16.152-1.805 8.905-12.951 9.789-12.951 16.873 0 2.479 0.476 10.18-1.637 13.563-3.364 5.385-9.217 10.713-16.582 8.084-30.938 14.674-30.938-13.09-30.938-13.09" fill="#1a1a1a"/></g><g transform="translate(894.01 639.63)"><path d="m0 0c-8.508 1.486-9.883 1.061-18.288 3.113l-19.462-23.787h75.499l-43.845 11.797z"/></g><g transform="translate(1034.6 632.82)"><path d="m0 0-4.462 5.859c-4.027-2.605-8.219-4.83-12.768-6.412l11.92-13.306h44.239z"/></g><g transform="translate(867.72 639.56)"><path d="m0 0c8.457-2.074 16.914-4.227 25.476-5.682l62.344 76.702-10.617 30.474-43.649 50.332 12.574-71.328z"/></g><g transform="translate(952.51 812.5)"><path d="m0 0c-17.104 4.541-40.295-1.201-56.938-7.48 0 0 10.209-40.639 16.909-52.764 19.515-35.295 103.92-123.39 103.92-123.39 4.633 1.576 13.565 8.115 17.655 10.76z" fill="#1a1a1a"/></g><g transform="translate(893.31 789.13)"><path d="m 0,0 c 16.517,6.201 49.649,16.66 66.653,12.414 0,0 -22.516,52.891 -32.737,64.557 C 27.018,84.842 -10.642,107 -10.642,78.031 -10.642,38.334 0,0 0,0" fill="#cde5e8"/></g><g transform="translate(908 869.63)"><path d="m0 0c-0.222-0.076-0.442-0.145-0.672-0.211-5.03-1.357-10.209 1.621-11.568 6.652-1.42 5.262-1.487 11.832-1.492 12.565-0.024 5.215 4.187 9.455 9.399 9.476 5.21 0.02 9.449-4.179 9.477-9.384 0.013-1.838 0.252-5.559 0.837-7.735 1.297-4.808-1.359-9.748-5.981-11.363" fill="#ef7824"/></g><g transform="translate(914.29 878.96)"><path d="m0 0c-0.033 0.676-0.128 1.355-0.312 2.035-0.585 2.176-0.824 5.897-0.837 7.735-0.028 5.205-4.267 9.404-9.477 9.384-5.212-0.021-9.423-4.261-9.399-9.476 0-0.119 5e-3 -0.405 0.013-0.799 4.652-5.25 12.315-7.723 20.012-8.879" fill="#c6601a"/></g><g transform="translate(923.52 907.26)"><path d="m0 0c3.046-9.375-2.085-19.436-11.458-22.486-9.373-3.039-19.438 2.088-22.483 11.459l-3.826 11.779c-3.045 9.375 2.085 19.441 11.455 22.484 9.374 3.047 19.44-2.082 22.485-11.455z" fill="#ef7824"/></g><g transform="translate(1028.6 916.72)"><path d="m0 0c-0.373 0.316-0.807 0.506-1.25 0.607 0.43 0.467 0.89 0.973 1.427 1.557 1.103 1.197 1.026 3.063-0.171 4.164-0.149 0.139-0.305 0.256-0.471 0.354 0.823 1.181 0.686 2.814-0.397 3.828-0.839 0.783-2.006 0.972-3.017 0.609 1.344 1.358 2.18 2.303 2.28 2.414 1.078 1.225 0.96 3.086-0.263 4.166-1.221 1.074-3.085 0.957-4.161-0.265-0.069-0.077-6.481-7.301-13.076-11.063-2.86 4.322-6.699 5.84-6.918 5.926-1.512 0.572-3.182-0.184-3.774-1.69-0.59-1.503 0.161-3.209 1.658-3.818 0.13-0.051 2.385-1.008 4.137-3.705-0.243-0.666-0.525-1.613-0.686-2.727-43.401-58.744-100.95-37.89-103.56-36.904-5.157 1.977-10.945-0.582-12.943-5.736-2.003-5.164 0.561-10.971 5.723-12.973 0.702-0.269 14.79-5.629 34.884-5.629 4.041 0 8.327 0.215 12.792 0.739 21.666 2.511 53.709 14.994 79.316 47.99 0.42 0.242 1.015 0.609 1.797 1.177 0.526 0.342 1.059 0.717 1.602 1.168l-0.069 0.051c1.514 1.274 3.382 3.074 5.503 5.608 1.047 1.25 0.883 3.107-0.366 4.152" fill="#ef7824"/></g><g transform="translate(948.72 880.03)"><path d="m0 0-2.444-0.527c-5.959-1.285-12.128-1.938-18.339-1.938-15.214 0-25.781 3.836-26.927 4.272-1.359 0.521-2.781 0.783-4.226 0.783-4.91 0-9.226-2.953-11.002-7.533-1.138-2.938-1.34-6.28 0.205-9.024 5.759-10.219 21.576-14.349 42.052-14.349 4.356 0 8.726 0.252 12.994 0.744 2.611 0.301 5.351 0.752 8.145 1.34l1.716 0.451s-2.455 7.445-2.978 15.01c-0.201 2.878 0.804 10.771 0.804 10.771" fill="#e1f3f6"/></g><g transform="translate(885.35 898.54)"><path d="m0 0c6.194 3.936 8.335 11.311 7.654 18.682 5.433-3.653 9.728-1.426 13.121 4.849 10.291-14.422 25.978 7.035 4.588 14.805-17.108 6.215-33.875-10.707-29.492-27.719z" fill="#1a1a1a"/></g></g></g></svg>
