<?xml version="1.0" encoding="UTF-8"?>
<!-- Created with Inkscape (http://www.inkscape.org/) -->
<svg width="575.56" height="58.149" version="1.1" viewBox="0 0 575.56 58.149" xml:space="preserve" xmlns="http://www.w3.org/2000/svg" xmlns:cc="http://creativecommons.org/ns#" xmlns:dc="http://purl.org/dc/elements/1.1/" xmlns:rdf="http://www.w3.org/1999/02/22-rdf-syntax-ns#"><metadata><rdf:RDF><cc:Work rdf:about=""><dc:format>image/svg+xml</dc:format><dc:type rdf:resource="http://purl.org/dc/dcmitype/StillImage"/><dc:title/></cc:Work></rdf:RDF></metadata><defs><clipPath id="clipPath36"><path d="M 0,196.49 H 602.97 V 0 H 0 Z"/></clipPath><clipPath id="clipPath92"><path d="m353.84 66.624c-7.81-2.513-7.327-15.43-6.584-19.313 0.838-4.381 4.153-5.051 5.075-3.053 1.062 2.3-0.67 2.893-1.438 11.547-0.566 6.387 1.353 9.147 2.961 10.332 1.056 0.777 2.008 0.782 2.008 0.782 0.141 0.067 0.122 0.095 5e-3 0.095-0.35 0-1.57-0.243-2.027-0.39"/></clipPath><linearGradient id="linearGradient102" x2="1" gradientTransform="matrix(0 -20.697 -20.697 0 351.42 65.493)" gradientUnits="userSpaceOnUse"><stop stop-color="#28404b" offset="0"/><stop stop-color="#47585f" offset="1"/></linearGradient><clipPath id="clipPath112"><path d="m379.5 83.264c-1.963-3.996 0.769-4.825 2.186-19.856 1.045-11.095-2.499-15.892-5.47-17.95-1.948-1.35-3.708-1.357-3.708-1.357-1.039-0.467 2.736-0.242 3.867 0.1 14.423 4.365 13.399 27.215 12.028 33.96-0.991 4.876-3.668 7.023-5.912 7.023-1.258-1e-3 -2.38-0.675-2.991-1.92"/></clipPath><linearGradient id="linearGradient122" x2="1" gradientTransform="matrix(0 -39.02 -39.02 0 380.73 81.493)" gradientUnits="userSpaceOnUse"><stop stop-color="#28404b" offset="0"/><stop stop-color="#46575e" offset="1"/></linearGradient><clipPath id="clipPath132"><path d="m355.1 71.264c-2.126-0.859-3.52-2.35-4.231-3.279-0.114-0.149 0.069-0.34 0.226-0.238 1.057 0.688 3.046 1.638 5.13 0.829 3.377-1.309 4.272-5.125 6.188-9.625 1.917-4.5 3.063-8.812 6-11.125 2.984-2.348 7.222-1.048 9.321 2.28 0.083 0.13-0.049 0.295-0.197 0.249-0.702-0.22-2.106-0.517-3.187 0.158-1.499 0.938-2.874 4.375-5.249 9.875-2.375 5.501-4.188 8.876-5.813 10.25-0.985 0.834-2.59 1.369-4.425 1.369-1.192 0-2.482-0.226-3.763-0.743"/></clipPath><linearGradient id="linearGradient142" x2="1" gradientTransform="matrix(12.353 -22.561 -22.561 -12.353 358.41 69.784)" gradientUnits="userSpaceOnUse"><stop stop-color="#f49f25" offset="0"/><stop stop-color="#f17824" offset="1"/></linearGradient><clipPath id="clipPath152"><path d="M 0,196.49 H 602.97 V 0 H 0 Z"/></clipPath><clipPath id="clipPath168"><path d="m354.96 71.611c-2.138-0.863-3.567-2.325-4.389-3.398-0.125-0.165-0.148-0.382-0.057-0.565 0.139-0.28 0.521-0.388 0.785-0.216 0.756 0.493 1.936 1.08 3.259 1.08 0.529 0 1.044-0.097 1.531-0.286 2.625-1.017 3.687-3.696 5.03-7.087 0.297-0.749 0.606-1.531 0.949-2.335 0.407-0.955 0.779-1.902 1.141-2.822 1.327-3.378 2.58-6.567 4.972-8.45 1.059-0.835 2.328-1.275 3.668-1.275 2.406 0 4.782 1.398 6.201 3.648 0.107 0.165 0.112 0.374 0.017 0.547-0.096 0.177-0.28 0.286-0.479 0.286l-0.163-0.025c-0.352-0.11-0.892-0.241-1.468-0.241-0.552 0-1.026 0.121-1.407 0.36-1.272 0.795-2.562 3.793-4.513 8.33l-0.592 1.376c-2.567 5.945-4.337 9.052-5.914 10.386-1.097 0.929-2.829 1.428-4.689 1.428-1.289 0-2.639-0.239-3.882-0.741m0.282-0.695c2.758 1.115 6.171 0.818 7.804-0.563 1.484-1.256 3.192-4.28 5.71-10.112l0.591-1.374c2.079-4.835 3.335-7.752 4.804-8.671 0.504-0.314 1.111-0.474 1.806-0.475 0.424 0 0.827 0.061 1.154 0.134-1.303-1.769-3.275-2.848-5.263-2.848-1.17 0-2.277 0.385-3.203 1.113-2.232 1.758-3.393 4.714-4.738 8.135-0.364 0.927-0.739 1.881-1.15 2.843-0.339 0.798-0.646 1.574-0.941 2.318-1.411 3.561-2.526 6.374-5.455 7.51-0.574 0.223-1.181 0.335-1.803 0.335-0.985 0-1.89-0.278-2.633-0.623 0.747 0.775 1.853 1.688 3.317 2.278"/></clipPath><linearGradient id="linearGradient180" x2="1" gradientTransform="matrix(16.625 -23.75 -23.75 -16.625 355.57 71.565)" gradientUnits="userSpaceOnUse"><stop stop-color="#f28925" offset="0"/><stop stop-color="#e77422" offset=".9947"/><stop stop-color="#e77422" offset="1"/></linearGradient></defs><g transform="matrix(1.3333 0 0 -1.3333 -219.14 115.23)"><g transform="translate(200.2 85.842)"><path d="m0 0-14.476-32.652-14.616 32.652h-1.361l-5.392-41.682h4.559l3.446 27.976 12.55-27.976h1.587l12.398 27.754 3.465-27.754h4.613l-5.42 41.682z" fill="#133541"/></g><g clip-path="url(#clipPath36)"><g transform="translate(233.43 67.951)"><path d="m0 0c1.979-2.234 2.982-5.06 2.982-8.398 0-2.194-0.448-4.19-1.331-5.934-0.878-1.732-2.148-3.125-3.775-4.139-3.233-2.014-7.087-2.038-10.232 9e-3 -1.574 1.024-2.847 2.479-3.783 4.323-0.941 1.854-1.418 3.823-1.418 5.852 0 2.047 0.473 4.015 1.405 5.85 0.929 1.827 2.193 3.263 3.756 4.268 1.558 1.001 3.281 1.509 5.121 1.509 2.904 0 5.284-1.092 7.275-3.34m2.757 2.834c-1.19 1.532-2.534 2.738-4.008 3.595-1.877 1.091-4 1.644-6.311 1.644-3.996 0-7.459-1.61-10.293-4.785-2.82-3.159-4.25-7.012-4.25-11.451 0-4.53 1.416-8.433 4.21-11.6 2.81-3.186 6.252-4.802 10.232-4.802 2.24 0 4.334 0.523 6.225 1.555 1.513 0.826 2.92 1.989 4.195 3.467v-4.248h4.449v31.09h-4.449z" fill="#133541"/></g><g transform="translate(253.94 71.401)"><path d="m0 0c1.634 0 3.356-0.96 5.121-2.855l0.377-0.405 2.912 3.329-0.309 0.33c-2.623 2.803-5.289 4.224-7.924 4.224-2.286 0-4.208-0.816-5.71-2.427-1.492-1.6-2.249-3.632-2.249-6.038 0-1.842 0.473-3.506 1.407-4.946 0.925-1.426 2.667-2.876 5.183-4.312 2.216-1.251 3.649-2.286 4.253-3.072 0.589-0.786 0.876-1.655 0.876-2.659 0-1.22-0.436-2.254-1.333-3.161-0.896-0.905-1.952-1.345-3.226-1.345-1.835 0-3.617 1.063-5.295 3.159l-0.392 0.489-2.822-3.549 0.215-0.305c0.977-1.388 2.227-2.491 3.716-3.28 1.493-0.791 3.083-1.192 4.727-1.192 2.487 0 4.59 0.92 6.25 2.735 1.648 1.801 2.483 4.027 2.483 6.615 0 1.842-0.49 3.525-1.463 5.009-0.987 1.46-2.777 2.922-5.475 4.469-2.067 1.177-3.43 2.2-4.055 3.047-0.606 0.803-0.901 1.618-0.901 2.492 0 0.98 0.351 1.815 1.073 2.555 0.718 0.735 1.556 1.093 2.561 1.093" fill="#133541"/></g><g transform="translate(274.92 86.422)"><path d="m0 0h-4.498v-11.173h-4.773v-4.346h4.773v-26.743h4.498v26.743h5.547v4.346h-5.547z" fill="#133541"/></g><g transform="translate(288.5 63.247)"><path d="m0 0c0.684 2.356 1.649 4.16 2.873 5.367 1.813 1.794 4.009 2.704 6.529 2.704 1.53 0 3.01-0.363 4.399-1.078 1.39-0.716 2.521-1.67 3.364-2.836 0.76-1.052 1.367-2.448 1.809-4.157zm23.957-3.842c-0.034 4.197-1.075 7.756-3.094 10.573-2.853 4.012-6.727 6.046-11.511 6.046-4.653 0-8.417-1.988-11.187-5.908-2.169-3.059-3.269-6.59-3.269-10.494 0-4.151 1.297-7.925 3.857-11.217 2.589-3.33 6.222-5.019 10.799-5.019 2.058 0 3.933 0.353 5.573 1.049 1.636 0.695 3.129 1.723 4.437 3.055 1.303 1.326 2.463 3.086 3.45 5.23l0.19 0.413-3.786 2.202-0.246-0.452c-1.037-1.911-2.008-3.306-2.884-4.149-0.869-0.834-1.939-1.513-3.182-2.018-1.243-0.506-2.54-0.762-3.853-0.762-2.742 0-4.984 1.04-6.853 3.181-1.768 2.024-2.738 4.635-2.887 7.766h24.45z" fill="#133541"/></g><g transform="translate(327.8 76.024)"><path d="m0 0c-1.385 0-2.728-0.465-3.991-1.381-0.891-0.645-1.755-1.534-2.58-2.651v3.258h-4.574v-31.09h4.574v10.677c0 5.155 0.213 8.613 0.634 10.276 0.54 2.129 1.327 3.711 2.338 4.702 0.982 0.961 1.999 1.448 3.024 1.448 0.422 0 0.971-0.16 1.634-0.477l0.423-0.202 2.287 4.089-0.407 0.252c-1.174 0.729-2.306 1.099-3.362 1.099" fill="#133541"/></g><g transform="translate(448.02 85.842)"><path d="m0 0-14.476-32.652-14.484 32.356-0.132 0.296h-1.36l-5.393-41.682h4.56l3.446 27.976 12.551-27.976h1.586l12.397 27.754 3.465-27.754h4.613l-5.419 41.682z" fill="#133541"/></g><g transform="translate(481.25 67.951)"><path d="m0 0c1.979-2.234 2.981-5.06 2.981-8.398 0-2.194-0.448-4.19-1.332-5.934-0.877-1.732-2.147-3.125-3.774-4.139-3.234-2.014-7.088-2.037-10.232 9e-3 -1.574 1.025-2.847 2.479-3.783 4.323-0.941 1.855-1.419 3.824-1.419 5.852 0 2.047 0.473 4.016 1.406 5.85 0.928 1.827 2.193 3.263 3.757 4.268 1.558 1.001 3.281 1.509 5.12 1.509 2.904 0 5.284-1.092 7.276-3.34m2.756 2.834c-1.191 1.532-2.534 2.738-4.009 3.595-1.876 1.091-3.999 1.644-6.31 1.644-3.997 0-7.459-1.61-10.293-4.785-2.821-3.159-4.25-7.012-4.25-11.451 0-4.53 1.416-8.433 4.21-11.6 2.809-3.186 6.252-4.802 10.233-4.802 2.239 0 4.334 0.523 6.224 1.555 1.513 0.826 2.919 1.989 4.195 3.466v-4.247h4.448v31.09h-4.448z" fill="#133541"/></g><g transform="translate(501.76 71.401)"><path d="m0 0c1.634 0 3.356-0.96 5.12-2.855l0.378-0.405 2.911 3.329-0.308 0.33c-2.623 2.803-5.288 4.224-7.924 4.224-2.287 0-4.208-0.816-5.709-2.427-1.493-1.6-2.25-3.632-2.25-6.038 0-1.842 0.473-3.506 1.407-4.946 0.925-1.426 2.668-2.877 5.183-4.312 2.217-1.251 3.649-2.286 4.253-3.072 0.589-0.785 0.876-1.655 0.876-2.659 0-1.22-0.436-2.254-1.333-3.161-0.896-0.905-1.952-1.345-3.226-1.345-1.836 0-3.617 1.063-5.295 3.159l-0.392 0.489-2.822-3.549 0.215-0.305c0.977-1.388 2.227-2.491 3.716-3.28 1.493-0.791 3.083-1.192 4.726-1.192 2.488 0 4.59 0.92 6.25 2.735 1.649 1.802 2.485 4.028 2.485 6.615 0 1.841-0.491 3.524-1.464 5.009-0.986 1.46-2.777 2.922-5.476 4.469-2.066 1.177-3.429 2.201-4.054 3.046-0.606 0.804-0.901 1.62-0.901 2.493 0 0.979 0.351 1.815 1.072 2.555 0.719 0.736 1.556 1.093 2.562 1.093" fill="#133541"/></g><g transform="translate(522.74 86.422)"><path d="m0 0h-4.499v-11.173h-4.772v-4.346h4.772v-26.743h4.499v26.743h5.547v4.346h-5.547z" fill="#133541"/></g><g transform="translate(536.31 63.247)"><path d="m0 0c0.685 2.355 1.649 4.159 2.874 5.367 1.813 1.794 4.009 2.704 6.528 2.704 1.53 0 3.01-0.363 4.4-1.078 1.39-0.717 2.522-1.671 3.364-2.836 0.76-1.052 1.367-2.448 1.809-4.157zm23.958-3.842c-0.034 4.197-1.075 7.756-3.094 10.573-2.853 4.012-6.726 6.046-11.511 6.046-4.653 0-8.417-1.988-11.188-5.908-2.168-3.058-3.268-6.589-3.268-10.494 0-4.152 1.298-7.926 3.857-11.217 2.589-3.33 6.222-5.019 10.799-5.019 2.057 0 3.932 0.353 5.573 1.049 1.636 0.695 3.129 1.723 4.437 3.055 1.303 1.326 2.463 3.086 3.45 5.23l0.19 0.413-3.786 2.202-0.246-0.452c-1.037-1.91-2.008-3.305-2.885-4.149-0.868-0.834-1.938-1.513-3.182-2.018-1.243-0.506-2.539-0.762-3.851-0.762-2.743 0-4.985 1.04-6.854 3.18-1.768 2.026-2.738 4.636-2.887 7.767h24.45z" fill="#133541"/></g><g transform="translate(578.97 74.925)"><path d="m0 0c-1.175 0.729-2.307 1.099-3.362 1.099-1.385 0-2.728-0.465-3.992-1.382-0.89-0.644-1.754-1.533-2.58-2.651v3.258h-4.573v-31.089h4.573v10.677c0 5.155 0.213 8.612 0.634 10.275 0.54 2.13 1.327 3.712 2.339 4.703 0.982 0.961 1.999 1.447 3.023 1.447 0.422 0 0.972-0.16 1.634-0.476l0.424-0.202 2.286 4.089z" fill="#133541"/></g><g transform="translate(588.94 62.214)"><path d="m0 0c-2.066 1.177-3.43 2.201-4.055 3.046-0.605 0.804-0.9 1.62-0.9 2.493 0 0.979 0.351 1.815 1.072 2.555 0.719 0.736 1.556 1.093 2.562 1.093 1.633 0 3.356-0.96 5.12-2.855l0.378-0.405 2.911 3.329-0.309 0.33c-2.623 2.803-5.288 4.224-7.924 4.224-2.287 0-4.208-0.816-5.709-2.427-1.493-1.6-2.25-3.632-2.25-6.038 0-1.842 0.474-3.506 1.408-4.946 0.925-1.426 2.668-2.877 5.182-4.312 2.218-1.251 3.65-2.286 4.253-3.072 0.59-0.785 0.876-1.655 0.876-2.659 0-1.22-0.435-2.254-1.333-3.161-0.895-0.905-1.951-1.345-3.225-1.345-1.836 0-3.618 1.063-5.295 3.159l-0.392 0.489-2.822-3.549 0.215-0.305c0.976-1.388 2.226-2.491 3.716-3.28 1.493-0.791 3.083-1.192 4.726-1.192 2.487 0 4.59 0.92 6.25 2.735 1.649 1.802 2.484 4.028 2.484 6.615 0 1.841-0.491 3.524-1.463 5.009-0.987 1.46-2.778 2.922-5.476 4.469" fill="#133541"/></g></g><g clip-path="url(#clipPath92)"><path d="m353.84 66.624c-7.81-2.513-7.327-15.43-6.584-19.313 0.838-4.381 4.153-5.051 5.075-3.053 1.062 2.3-0.67 2.893-1.438 11.547-0.566 6.387 1.353 9.147 2.961 10.332 1.056 0.777 2.008 0.782 2.008 0.782 0.141 0.067 0.122 0.095 5e-3 0.095-0.35 0-1.57-0.243-2.027-0.39" fill="url(#linearGradient102)"/></g><g clip-path="url(#clipPath112)"><path d="m379.5 83.264c-1.963-3.996 0.769-4.825 2.186-19.856 1.045-11.095-2.499-15.892-5.47-17.95-1.948-1.35-3.708-1.357-3.708-1.357-1.039-0.467 2.736-0.242 3.867 0.1 14.423 4.365 13.399 27.215 12.028 33.96-0.991 4.876-3.668 7.023-5.912 7.023-1.258-1e-3 -2.38-0.675-2.991-1.92" fill="url(#linearGradient122)"/></g><g clip-path="url(#clipPath132)"><path d="m355.1 71.264c-2.126-0.859-3.52-2.35-4.231-3.279-0.114-0.149 0.069-0.34 0.226-0.238 1.057 0.688 3.046 1.638 5.13 0.829 3.377-1.309 4.272-5.125 6.188-9.625 1.917-4.5 3.063-8.812 6-11.125 2.984-2.348 7.222-1.048 9.321 2.28 0.083 0.13-0.049 0.295-0.197 0.249-0.702-0.22-2.106-0.517-3.187 0.158-1.499 0.938-2.874 4.375-5.249 9.875-2.375 5.501-4.188 8.876-5.813 10.25-0.985 0.834-2.59 1.369-4.425 1.369-1.192 0-2.482-0.226-3.763-0.743" fill="url(#linearGradient142)"/></g><g clip-path="url(#clipPath152)"><g transform="translate(352.96 65.869)"><path d="m0 0c-6.641-3.252-5.916-15.48-5.341-18.488 0.502-2.625 1.942-3.821 3.066-3.821 0.576 0 1.05 0.311 1.3 0.854 0.49 1.059 0.321 1.704-0.087 3.262-0.401 1.534-1.007 3.852-1.383 8.095-0.503 5.672 0.92 8.595 2.445 10.098m-2.275-23.059c-1.471 0-3.217 1.37-3.802 4.431-0.667 3.49-1.463 17.069 6.836 19.74 0.49 0.157 1.746 0.408 2.143 0.408 0.352 0 0.439-0.22 0.46-0.313 0.028-0.119 0.024-0.34-0.302-0.496l-0.161-0.037c-6e-3 0-0.854-0.021-1.787-0.708-1.583-1.166-3.355-3.847-2.81-9.998 0.371-4.18 0.968-6.462 1.362-7.971 0.429-1.64 0.645-2.463 0.043-3.766-0.374-0.808-1.114-1.29-1.982-1.29" fill="#133541"/></g><g transform="translate(382.49 84.809)"><path d="m0 0c-1.153 0-2.121-0.624-2.654-1.71-0.992-2.019-0.724-3.134-8e-3 -6.113 0.625-2.604 1.57-6.538 2.23-13.543 1.053-11.166-2.479-16.111-5.628-18.293-0.511-0.354-1.009-0.62-1.47-0.82 0.526 0.061 1.01 0.141 1.305 0.23 7.567 2.29 10.528 9.856 11.679 15.8 1.426 7.363 0.684 14.814 0.092 17.726-0.944 4.644-3.466 6.723-5.546 6.723m-9.368-41.348c-0.607 0-1.076 0.031-1.159 0.416-0.036 0.162 5e-3 0.392 0.39 0.566l0.152 0.033c0.016 0 1.678 0.031 3.498 1.291 2.984 2.067 6.328 6.801 5.309 17.605-0.655 6.953-1.593 10.855-2.214 13.438-0.718 2.992-1.046 4.357 0.064 6.619 0.655 1.334 1.899 2.13 3.328 2.13 2.385 0 5.252-2.265 6.28-7.324 0.603-2.962 1.359-10.539-0.09-18.018-1.708-8.814-5.925-14.477-12.198-16.374-0.721-0.219-2.369-0.382-3.36-0.382" fill="#133541"/></g></g><g clip-path="url(#clipPath168)"><path d="m354.96 71.611c-2.138-0.863-3.567-2.325-4.389-3.398-0.125-0.165-0.148-0.382-0.057-0.565 0.139-0.28 0.521-0.388 0.785-0.216 0.756 0.493 1.936 1.08 3.259 1.08 0.529 0 1.044-0.097 1.531-0.286 2.625-1.017 3.687-3.696 5.03-7.087 0.297-0.749 0.606-1.531 0.949-2.335 0.407-0.955 0.779-1.902 1.141-2.822 1.327-3.378 2.58-6.567 4.972-8.45 1.059-0.835 2.328-1.275 3.668-1.275 2.406 0 4.782 1.398 6.201 3.648 0.107 0.165 0.112 0.374 0.017 0.547-0.096 0.177-0.28 0.286-0.479 0.286l-0.163-0.025c-0.352-0.11-0.892-0.241-1.468-0.241-0.552 0-1.026 0.121-1.407 0.36-1.272 0.795-2.562 3.793-4.513 8.33l-0.592 1.376c-2.567 5.945-4.337 9.052-5.914 10.386-1.097 0.929-2.829 1.428-4.689 1.428-1.289 0-2.639-0.239-3.882-0.741m0.282-0.695c2.758 1.115 6.171 0.818 7.804-0.563 1.484-1.256 3.192-4.28 5.71-10.112l0.591-1.374c2.079-4.835 3.335-7.752 4.804-8.671 0.504-0.314 1.111-0.474 1.806-0.475 0.424 0 0.827 0.061 1.154 0.134-1.303-1.769-3.275-2.848-5.263-2.848-1.17 0-2.277 0.385-3.203 1.113-2.232 1.758-3.393 4.714-4.738 8.135-0.364 0.927-0.739 1.881-1.15 2.843-0.339 0.798-0.646 1.574-0.941 2.318-1.411 3.561-2.526 6.374-5.455 7.51-0.574 0.223-1.181 0.335-1.803 0.335-0.985 0-1.89-0.278-2.633-0.623 0.747 0.775 1.853 1.688 3.317 2.278" fill="url(#linearGradient180)"/></g></g></svg>
